<svg xmlns="http://www.w3.org/2000/svg" viewBox="40 70 60 60">
    <defs>
        <linearGradient id="pulseGradient" x1="0%" y1="0%" x2="100%" y2="0%">
            <stop offset="0%" style="stop-color:#4CAF50;stop-opacity:0.2" />
            <stop offset="50%" style="stop-color:#4CAF50;stop-opacity:1" />
            <stop offset="100%" style="stop-color:#4CAF50;stop-opacity:0.2" />
        </linearGradient>
    </defs>

    <!-- Server rack -->
    <rect x="40" y="70" width="60" height="60" rx="2" fill="#2C3E50" />

    <!-- Server slots with status lights and charts -->
    <!-- Top server slot -->
    <rect x="45" y="80" width="50" height="8" rx="1" fill="#34495E" />
    <circle cx="50" cy="84" r="2" fill="#4CAF50" />
    <path d="M55 84 L60 84 L65 82 L70 86 L75 84 L80 84" stroke="url(#pulseGradient)" stroke-width="1.5" fill="none" />

    <!-- Middle server slot -->
    <rect x="45" y="96" width="50" height="8" rx="1" fill="#34495E" />
    <circle cx="50" cy="100" r="2" fill="#4CAF50" />
    <path d="M55 100 L60 100 L65 98 L70 102 L75 100 L80 100" stroke="url(#pulseGradient)" stroke-width="1.5"
        fill="none" />

    <!-- Bottom server slot -->
    <rect x="45" y="112" width="50" height="8" rx="1" fill="#34495E" />
    <circle cx="50" cy="116" r="2" fill="#4CAF50" />
    <path d="M55 116 L60 116 L65 114 L70 118 L75 116 L80 116" stroke="url(#pulseGradient)" stroke-width="1.5"
        fill="none" />
</svg>